<svg width="100" height="100" viewBox="0 0 100 100" fill="none" xmlns="http://www.w3.org/2000/svg">
  <defs>
    <linearGradient id="grad1" x1="0%" y1="0%" x2="100%" y2="100%">
      <stop offset="0%" style="stop-color:rgba(102,126,234,0.1);stop-opacity:1" />
      <stop offset="50%" style="stop-color:rgba(118,75,162,0.1);stop-opacity:1" />
      <stop offset="100%" style="stop-color:rgba(240,147,251,0.1);stop-opacity:1" />
    </linearGradient>
    <filter id="blur" x="-50%" y="-50%" width="200%" height="200%">
      <feGaussianBlur in="SourceGraphic" stdDeviation="2"/>
    </filter>
  </defs>
  
  <!-- Background pattern -->
  <rect width="100" height="100" fill="url(#grad1)"/>
  
  <!-- Geometric shapes for glass morphism effect -->
  <circle cx="20" cy="20" r="15" fill="rgba(255,255,255,0.05)" filter="url(#blur)"/>
  <circle cx="80" cy="30" r="12" fill="rgba(255,255,255,0.03)" filter="url(#blur)"/>
  <circle cx="60" cy="70" r="18" fill="rgba(255,255,255,0.04)" filter="url(#blur)"/>
  <circle cx="30" cy="85" r="10" fill="rgba(255,255,255,0.06)" filter="url(#blur)"/>
  
  <!-- Additional decorative elements -->
  <path d="M10 10 Q 50 30 90 10 Q 70 50 90 90 Q 50 70 10 90 Q 30 50 10 10" 
        fill="none" 
        stroke="rgba(255,255,255,0.1)" 
        stroke-width="0.5"
        filter="url(#blur)"/>
        
  <polygon points="70,15 75,25 85,25 77,32 80,42 70,37 60,42 63,32 55,25 65,25" 
           fill="rgba(240,147,251,0.08)" 
           filter="url(#blur)"/>
</svg>
